<?xml version="1.0" encoding="iso-8859-1"?>
<!-- Generator: Adobe Illustrator 19.0.0, SVG Export Plug-In . SVG Version: 6.00 Build 0)  -->
<svg version="1.1" id="Capa_1" xmlns="http://www.w3.org/2000/svg" xmlns:xlink="http://www.w3.org/1999/xlink" x="0px" y="0px"
	 viewBox="0 0 512 512" style="enable-background:new 0 0 512 512;" xml:space="preserve">
<g>
	<g>
		<path d="M502.72,253.163c-66.944-63.445-154.581-98.389-246.72-98.389S76.224,189.717,9.067,253.355
			C3.2,259.2,0,267.029,0,275.413c0,8.469,3.371,16.512,9.045,21.845l50.688,50.709c11.712,11.669,32.747,11.328,43.627,0.491
			c15.851-14.677,33.323-26.816,51.776-36.053c11.456-5.547,15.531-19.051,15.531-29.845v-56.021
			c27.2-7.317,58.133-7.979,85.333-7.979c28.821,0,58.965,0.661,85.333,7.915v56.085c0,14.165,5.717,25.408,15.189,29.995
			c19.285,9.643,36.8,21.76,52.032,36.032c5.824,5.504,13.696,8.64,21.632,8.64c8.384,0,16.213-3.2,22.059-9.067l50.688-50.688
			c5.845-5.824,9.067-13.653,9.067-22.059C512,267.029,508.8,259.2,502.72,253.163z M487.851,282.368l-50.688,50.688
			c-3.541,3.541-10.005,3.712-13.995-0.021c-16.768-15.701-35.989-29.013-57.216-39.616c-1.323-0.64-3.285-4.544-3.285-10.859v-64
			c0-4.587-2.944-8.661-7.296-10.112c-31.04-10.347-66.112-11.221-99.371-11.221c-31.339,0-67.435,0.875-99.285,11.179
			c-4.395,1.429-7.381,5.525-7.381,10.155v64c0,5.845-2.027,9.963-3.584,10.709c-20.373,10.197-39.509,23.488-57.152,39.808
			c-3.349,3.371-10.133,3.413-13.76-0.192l-50.923-50.923c-1.643-1.557-2.581-3.925-2.581-6.549c0-2.688,1.003-5.163,2.603-6.763
			C86.912,208.96,169.323,176.107,256,176.107s169.088,32.853,231.851,92.331c1.813,1.813,2.816,4.288,2.816,6.976
			S489.664,280.576,487.851,282.368z"/>
	</g>
</g>
<g>
</g>
<g>
</g>
<g>
</g>
<g>
</g>
<g>
</g>
<g>
</g>
<g>
</g>
<g>
</g>
<g>
</g>
<g>
</g>
<g>
</g>
<g>
</g>
<g>
</g>
<g>
</g>
<g>
</g>
</svg>
